<?xml version="1.0" encoding="UTF-8"?>
<!DOCTYPE svg PUBLIC "-//W3C//DTD SVG 1.1//EN" "http://www.w3.org/Graphics/SVG/1.1/DTD/svg11.dtd">
<!-- Creator: CorelDRAW X6 -->
<svg xmlns="http://www.w3.org/2000/svg" xml:space="preserve" width="54.3278mm" height="32.1028mm" version="1.1" style="shape-rendering:geometricPrecision; text-rendering:geometricPrecision; image-rendering:optimizeQuality; fill-rule:evenodd; clip-rule:evenodd"
viewBox="0 0 5433 3210"
 xmlns:xlink="http://www.w3.org/1999/xlink">
 <defs>
  <style type="text/css">
   <![CDATA[
    .fil1 {fill:#61C198;fill-rule:nonzero}
    .fil0 {fill:#B2DCC5;fill-rule:nonzero}
   ]]>
  </style>
 </defs>
 <g id="Camada_x0020_1">
  <metadata id="CorelCorpID_0Corel-Layer"/>
  <path class="fil0" d="M94 2984l0 0 239 -71c-20,-49 -57,-69 -109,-69 -79,0 -130,49 -130,140zm266 86l55 51c-49,60 -113,88 -188,88 -135,0 -227,-89 -227,-220 0,-128 84,-220 218,-221 119,-2 198,71 206,189l-317 95c21,51 66,82 125,82 49,0 93,-22 128,-64z"/>
  <path class="fil0" d="M702 2720c-57,0 -93,21 -93,60 0,125 309,58 308,264 0,102 -90,165 -216,165 -90,0 -175,-36 -234,-90l42 -84c59,54 132,84 194,84 67,0 107,-26 107,-70 0,-128 -309,-56 -309,-260 0,-98 84,-160 208,-160 75,0 147,24 201,59l-40 85c-63,-37 -125,-53 -168,-53z"/>
  <path class="fil0" d="M1344 3006l0 -32c-7,-75 -59,-127 -133,-127 -78,0 -133,60 -134,143 1,83 55,142 134,142 74,0 126,-52 133,-126zm93 -235l0 435 -93 0 0 -73c-32,49 -83,77 -152,77 -125,0 -209,-91 -209,-223 0,-130 83,-219 206,-220 70,-1 123,27 155,78l0 -74 93 0z"/>
  <path class="fil0" d="M1795 2708l-83 0 87 -121 96 41 -100 80zm176 63l0 435 -94 0 0 -85c-29,61 -84,88 -155,88 -100,0 -160,-63 -160,-167l0 -271 94 0 0 245c0,65 39,105 102,105 75,-2 119,-60 119,-136l0 -214 94 0z"/>
  <path class="fil0" d="M2431 2990c0,-84 -55,-143 -133,-143 -79,0 -134,60 -135,143 1,83 55,142 135,142 78,0 133,-59 133,-142zm94 -391l0 607 -94 0 0 -74c-31,50 -83,78 -153,78 -125,0 -209,-91 -209,-223 0,-131 85,-220 207,-220 71,0 123,28 155,79l0 -247 94 0z"/>
  <path class="fil0" d="M2721 2984l0 0 239 -71c-20,-49 -57,-69 -109,-69 -79,0 -130,49 -130,140zm266 86l55 51c-49,60 -113,88 -188,88 -134,0 -227,-89 -227,-220 0,-128 84,-220 219,-221 118,-2 198,71 205,189l-317 95c22,51 67,82 126,82 48,0 92,-22 127,-64z"/>
  <path class="fil1" d="M3512 3037c0,-51 -45,-82 -120,-81l-147 0 0 163 147 0c75,1 120,-29 120,-82zm-22 -243c0,-48 -37,-75 -98,-74l-147 0 0 151 147 0c61,0 98,-28 98,-77zm99 -17c0,63 -38,112 -100,127 76,13 122,68 122,145 0,98 -79,157 -208,157l-255 0 0 -573 249 0c119,0 192,54 192,144z"/>
  <path class="fil1" d="M4115 2771l0 435 -94 0 0 -85c-29,61 -84,88 -155,88 -100,0 -160,-63 -160,-167l0 -271 94 0 0 245c0,65 39,105 102,105 75,-2 119,-60 119,-136l0 -214 94 0z"/>
  <path class="fil1" d="M4437 2850c-76,0 -130,57 -130,139 0,83 54,139 130,139 54,0 99,-18 128,-52l52 52c-39,52 -102,81 -185,81 -129,0 -219,-89 -219,-220 0,-131 90,-221 219,-221 79,0 140,25 180,71l-51 60c-30,-31 -72,-50 -124,-49z"/>
  <path class="fil1" d="M5018 3006l0 -32c-7,-75 -59,-127 -132,-127 -79,0 -134,60 -135,143 1,83 55,142 135,142 73,0 125,-52 132,-126zm93 -235l0 435 -93 0 0 -73c-32,49 -83,77 -152,77 -125,0 -209,-91 -209,-223 0,-130 83,-219 206,-220 70,-1 123,27 155,78l0 -74 93 0z"/>
  <path class="fil1" d="M5376 3124c13,0 27,-5 44,-14l13 77c-28,16 -56,23 -82,23 -61,0 -108,-43 -108,-127l0 -484 93 0 0 475c0,35 16,50 40,50z"/>
  <path class="fil1" d="M2581 2468c-320,-953 -113,-2233 1155,-2226 52,1103 -907,1181 -907,1181 0,0 742,-199 725,-1006 -883,155 -1139,1198 -973,2051l0 0z"/>
  <path class="fil1" d="M1901 452c-44,242 -25,609 357,943 -756,-405 -533,-1127 -533,-1127 0,0 480,-2 774,362 -203,-148 -430,-180 -598,-178l0 0z"/>
  <path class="fil1" d="M2665 -6c123,-9 230,83 239,207 8,123 -84,229 -207,238 -123,8 -230,-84 -238,-207 -9,-123 83,-230 206,-238l0 0z"/>
 </g>
</svg>
